# xmcd CD database file
#
# Track frame offsets:
#	150
#	20070
#	44800
#	62760
#	76948
#	95663
#	108728
#	123698
#	141860
#	158455
#	174763
#	193465
#
# Disc length: 2782 seconds
#
# Revision: 0
# Processed by: cddbd v1.5.2PL0 Copyright (c) Steve Scherf et al.
# Submitted via: CDex 1.51
#
DISCID=ac0adc0c
DTITLE=Pete Jolly - When Lights are Low
DYEAR=1956
DGENRE=Jazz
TTITLE0=Skating
TTITLE1=Ah-Moore
TTITLE2=When Lights are Low
TTITLE3=Groovin' with Gus
TTITLE4=Unconcerned
TTITLE5=Whistle While You Work
TTITLE6=Broadway
TTITLE7=My Old Flame
TTITLE8=Jordu
TTITLE9=That Old Feeling
TTITLE10=Five Brothers
TTITLE11=Thou Swell
EXTD=YEAR: 1956
EXTT0=
EXTT1=
EXTT2=
EXTT3=
EXTT4=
EXTT5=
EXTT6=
EXTT7=
EXTT8=
EXTT9=
EXTT10=
EXTT11=
PLAYORDER=
